<?xml version="1.0" encoding="UTF-8" standalone="no"?><!DOCTYPE svg PUBLIC "-//W3C//DTD SVG 1.1//EN" "http://www.w3.org/Graphics/SVG/1.1/DTD/svg11.dtd"><svg width="100%" height="100%" viewBox="0 0 24 24" version="1.1" xmlns="http://www.w3.org/2000/svg" xmlns:xlink="http://www.w3.org/1999/xlink" xml:space="preserve" xmlns:serif="http://www.serif.com/" style="fill-rule:evenodd;clip-rule:evenodd;stroke-linejoin:round;stroke-miterlimit:2;"><rect id="Artboard1" x="0" y="0" width="24" height="24" style="fill:none;"/><clipPath id="_clip1"><rect id="Artboard11" serif:id="Artboard1" x="0" y="0" width="24" height="24"/></clipPath><g clip-path="url(#_clip1)"><g><g><path d="M23.226,7.048c-0.417,-1.129 -1.526,-1.887 -2.759,-1.887l-16.935,-0.001c-1.233,0 -2.342,0.758 -2.759,1.887c-0.353,0.953 -0.774,2.428 -0.774,4.049c0,1.766 0.498,3.859 0.915,5.301c0.183,0.636 0.557,1.326 1.001,1.845c0.337,0.398 0.876,0.539 1.373,0.357c0.508,-0.186 0.836,-0.654 0.836,-1.196l0,-6.469c0,-0.29 0.235,-0.525 0.525,-0.525c0.139,0 0.273,0.055 0.372,0.153c0.098,0.098 0.153,0.231 0.153,0.372l0,6.45c0,0.703 0.572,1.275 1.275,1.275l0.075,0c0.703,0 1.275,-0.572 1.275,-1.275l0,-6.45c0,-0.29 0.235,-0.525 0.525,-0.525c0.139,0 0.273,0.055 0.372,0.153c0.098,0.098 0.153,0.231 0.153,0.372l0,6.45c0,0.703 0.572,1.275 1.275,1.275l0.075,0c0.703,0 1.275,-0.572 1.275,-1.275l0,-6.45c0,-0.29 0.235,-0.525 0.525,-0.525c0.14,0 0.273,0.055 0.372,0.153c0.098,0.098 0.153,0.231 0.153,0.372l0,6.45c0,0.703 0.572,1.275 1.275,1.275l0.075,0c0.703,0 1.275,-0.572 1.275,-1.275l0,-6.45c0,-0.29 0.235,-0.525 0.525,-0.525c0.139,0 0.273,0.055 0.372,0.153c0.098,0.097 0.152,0.231 0.152,0.372l0,6.45c0,0.703 0.572,1.275 1.275,1.275l0.075,0c0.703,0 1.275,-0.572 1.275,-1.275l0,-6.45c0,-0.29 0.235,-0.525 0.525,-0.525c0.139,0 0.273,0.055 0.372,0.153c0.099,0.098 0.152,0.231 0.152,0.372l0,6.473c0,0.538 0.328,1.006 0.836,1.192c0.144,0.053 0.291,0.079 0.437,0.079c0.354,0 0.696,-0.153 0.936,-0.435c0.444,-0.521 0.819,-1.211 1.001,-1.845c0.417,-1.444 0.914,-3.536 0.914,-5.302c0,-1.621 -0.42,-3.096 -0.774,-4.049l0.003,0.001Zm-14.226,0.737l-4.875,0c-0.207,0 -0.375,-0.168 -0.375,-0.375c0,-0.207 0.168,-0.375 0.375,-0.375l4.875,0c0.207,0 0.375,0.168 0.375,0.375c0,0.207 -0.168,0.375 -0.375,0.375Zm1.875,-0.001c-0.207,0 -0.375,-0.168 -0.375,-0.375c0,-0.207 0.168,-0.375 0.375,-0.375c0.207,0 0.375,0.168 0.375,0.375c0,0.207 -0.168,0.375 -0.375,0.375Z" style="fill-rule:nonzero;"/></g></g></g></svg>