<?xml version="1.0" encoding="UTF-8" standalone="no"?><!DOCTYPE svg PUBLIC "-//W3C//DTD SVG 1.1//EN" "http://www.w3.org/Graphics/SVG/1.1/DTD/svg11.dtd"><svg width="100%" height="100%" viewBox="0 0 24 24" version="1.1" xmlns="http://www.w3.org/2000/svg" xmlns:xlink="http://www.w3.org/1999/xlink" xml:space="preserve" xmlns:serif="http://www.serif.com/" style="fill-rule:evenodd;clip-rule:evenodd;stroke-linejoin:round;stroke-miterlimit:2;">

<path d="M11.091,8.127c0,2.008 -1.628,3.637 -3.636,3.637c-2.009,0 -3.637,-1.629 -3.637,-3.637c0,-2.008 1.628,-3.637 3.637,-3.637c2.008,0 3.636,1.629 3.636,3.637Z M9.273,12.672l-3.637,0c-0.964,0 -1.889,0.384 -2.571,1.065c-0.682,0.682 -1.065,1.606 -1.065,2.571l0,2.727c0,0.241 0.096,0.472 0.266,0.643c0.17,0.17 0.401,0.267 0.643,0.267l9.091,0c0.241,0 0.472,-0.096 0.643,-0.267c0.17,-0.17 0.267,-0.401 0.267,-0.643l0,-2.727c0,-0.965 -0.384,-1.889 -1.065,-2.571c-0.682,-0.682 -1.606,-1.065 -2.571,-1.065Z M20.182,8.127c0,2.008 -1.628,3.637 -3.637,3.637c-2.008,0 -3.636,-1.629 -3.636,-3.637c0,-2.008 1.628,-3.637 3.636,-3.637c2.009,0 3.637,1.629 3.637,3.637Z M18.364,12.672l-3.637,0c-0.733,0 -1.45,0.223 -2.055,0.637c0.735,0.828 1.142,1.894 1.145,3l0,2.727c-0.003,0.321 -0.091,0.634 -0.254,0.909l7.527,0c0.241,0 0.472,-0.096 0.643,-0.267c0.17,-0.17 0.266,-0.401 0.266,-0.643l0,-2.727c0,-0.965 -0.383,-1.889 -1.065,-2.571c-0.682,-0.682 -1.607,-1.065 -2.571,-1.065Z" />


</svg>