<svg xmlns="http://www.w3.org/2000/svg" enable-background="new 0 0 24 24" viewBox="0 0 24 30" x="0px" y="0px"><path d="M19,2H5C3.3,2,2,3.3,2,5v14c0,1.7,1.3,3,3,3h14c1.7,0,3-1.3,3-3V5C22,3.3,20.7,2,19,2z M5,19c-0.6,0-1-0.4-1-1s0.4-1,1-1  s1,0.4,1,1S5.6,19,5,19z M9,19c-0.6,0-1-0.4-1-1s0.4-1,1-1s1,0.4,1,1S9.6,19,9,19z M20,15H4v-5h4c0.3,0,0.5-0.1,0.7-0.3L10,8.5  l2.8,3.2c0.2,0.2,0.4,0.3,0.7,0.3l0,0c0.3,0,0.5-0.1,0.7-0.3l1.7-1.7H20V15z M20,8h-4.5c-0.3,0-0.5,0.1-0.7,0.3l-1.2,1.2l-2.8-3.2  C10.6,6.1,10.3,6,10,6C9.8,6,9.5,6.1,9.3,6.3L7.6,8H4V5c0-0.6,0.4-1,1-1h14c0.6,0,1,0.4,1,1V8z"/></svg>