<?xml version="1.0" encoding="UTF-8" standalone="no"?><!DOCTYPE svg PUBLIC "-//W3C//DTD SVG 1.1//EN" "http://www.w3.org/Graphics/SVG/1.1/DTD/svg11.dtd"><svg width="100%" height="100%" viewBox="0 0 24 24" version="1.1" xmlns="http://www.w3.org/2000/svg" xmlns:xlink="http://www.w3.org/1999/xlink" xml:space="preserve" xmlns:serif="http://www.serif.com/" style="fill-rule:evenodd;clip-rule:evenodd;stroke-linejoin:round;stroke-miterlimit:2;"><g><g><path d="M21.037,4.308c-2.42,-2.42 -6.27,-2.64 -9.02,-0.66c-3.08,-2.2 -7.37,-1.65 -9.68,1.43c-1.98,2.75 -1.76,6.6 0.66,9.02l6.6,6.6c1.32,1.32 3.41,1.32 4.62,0l6.6,-6.6c2.86,-2.75 2.86,-7.04 0.22,-9.79Zm-6.82,8.8l-1.1,0l0,1.1c0,0.66 -0.44,1.1 -1.1,1.1c-0.66,0 -1.1,-0.44 -1.1,-1.1l0,-1.1l-1.1,0c-0.66,0 -1.1,-0.44 -1.1,-1.1c0,-0.66 0.44,-1.1 1.1,-1.1l1.1,0l0,-1.1c0,-0.66 0.44,-1.1 1.1,-1.1c0.66,0 1.1,0.44 1.1,1.1l0,1.1l1.1,0c0.66,0 1.1,0.44 1.1,1.1c0,0.66 -0.44,1.1 -1.1,1.1Z" style="fill-rule:nonzero;"/></g></g></svg>