<?xml version="1.0" encoding="UTF-8" standalone="no"?>
<!DOCTYPE svg PUBLIC "-//W3C//DTD SVG 1.1//EN" "http://www.w3.org/Graphics/SVG/1.1/DTD/svg11.dtd">
<svg width="100%" height="100%" viewBox="0 0 24 24" version="1.1" xmlns="http://www.w3.org/2000/svg" xmlns:xlink="http://www.w3.org/1999/xlink" xml:space="preserve" xmlns:serif="http://www.serif.com/" style="fill-rule:evenodd;clip-rule:evenodd;stroke-linejoin:round;stroke-miterlimit:2;">
    <g id="Artboard1" transform="matrix(0.24,0,0,0.24,0,-3)">
        <rect x="0" y="12.5" width="100" height="100" style="fill:none;"/>
        <g transform="matrix(1,0,0,1,0,12.5)">
            <path d="M20,42.83L14.1,68.15C10.941,81.624 19.383,95.319 32.84,98.55C33.421,98.839 34.061,98.989 34.71,98.989C37.01,98.989 38.904,97.1 38.91,94.8L38.91,84.7C38.908,84.251 38.707,83.825 38.36,83.54C37.933,83.187 37.523,82.817 37.13,82.43C32.999,78.319 30.508,72.836 30.13,67.02C29.817,63.02 29.623,58.99 29.55,54.93L29.55,54.01C29.55,53.995 29.55,53.981 29.55,53.966C29.55,52.825 30.488,51.886 31.63,51.886C31.673,51.886 31.717,51.887 31.76,51.89C36.36,52.17 45.28,51.21 55.76,42.19C56.15,41.848 56.652,41.66 57.17,41.66C57.917,41.66 58.613,42.051 59,42.69C61.438,46.624 64.94,49.79 69.1,51.82C69.976,52.27 70.521,53.185 70.5,54.17L70.26,65.7C70.074,72.606 66.933,79.11 61.64,83.55C61.293,83.835 61.092,84.261 61.09,84.71L61.09,92.48C61.101,95.806 63.834,98.539 67.16,98.55C80.617,95.319 89.059,81.624 85.9,68.15L80,42.83C78.681,36.312 75.267,30.4 70.28,26L74.42,10.25C74.807,8.774 74.109,7.214 72.75,6.52C58.479,-0.781 41.531,-0.781 27.26,6.52C25.901,7.214 25.203,8.774 25.59,10.25L29.72,26C24.733,30.4 21.319,36.312 20,42.83ZM39.27,18.54C39.27,17.553 40.083,16.74 41.07,16.74L46.61,16.74L46.61,11.2C46.61,10.213 47.423,9.4 48.41,9.4L51.59,9.4C52.577,9.4 53.39,10.213 53.39,11.2L53.39,16.74L58.93,16.74C59.917,16.74 60.73,17.553 60.73,18.54L60.73,21.72C60.73,22.707 59.917,23.52 58.93,23.52L53.39,23.52L53.39,29.06C53.39,30.047 52.577,30.86 51.59,30.86L48.41,30.86C47.423,30.86 46.61,30.047 46.61,29.06L46.61,23.52L41.07,23.52C40.083,23.52 39.27,22.707 39.27,21.72L39.27,18.54Z" style="fill-rule:nonzero;"/>
        </g>
    </g>
</svg>
