<?xml version="1.0" encoding="UTF-8" standalone="no"?><!DOCTYPE svg PUBLIC "-//W3C//DTD SVG 1.1//EN" "http://www.w3.org/Graphics/SVG/1.1/DTD/svg11.dtd"><svg width="100%" height="100%" viewBox="0 0 24 24" version="1.1" xmlns="http://www.w3.org/2000/svg" xmlns:xlink="http://www.w3.org/1999/xlink" xml:space="preserve" xmlns:serif="http://www.serif.com/" style="fill-rule:evenodd;clip-rule:evenodd;stroke-linejoin:round;stroke-miterlimit:2;"><g><path d="M19,2l-14,0c-1.7,0 -3,1.3 -3,3l0,14c0,1.7 1.3,3 3,3l14,0c1.7,0 3,-1.3 3,-3l0,-14c0,-1.7 -1.3,-3 -3,-3Zm-14,17c-0.6,0 -1,-0.4 -1,-1c0,-0.6 0.4,-1 1,-1c0.6,0 1,0.4 1,1c0,0.6 -0.4,1 -1,1Zm4,0c-0.6,0 -1,-0.4 -1,-1c0,-0.6 0.4,-1 1,-1c0.6,0 1,0.4 1,1c0,0.6 -0.4,1 -1,1Zm11,-4l-16,0l0,-5l4,0c0.3,0 0.5,-0.1 0.7,-0.3l1.3,-1.2l2.8,3.2c0.2,0.2 0.4,0.3 0.7,0.3c0.3,0 0.5,-0.1 0.7,-0.3l1.7,-1.7l4.1,0l0,5Zm0,-7l-4.5,0c-0.3,0 -0.5,0.1 -0.7,0.3l-1.2,1.2l-2.8,-3.2c-0.2,-0.2 -0.5,-0.3 -0.8,-0.3c-0.2,0 -0.5,0.1 -0.7,0.3l-1.7,1.7l-3.6,0l0,-3c0,-0.6 0.4,-1 1,-1l14,0c0.6,0 1,0.4 1,1l0,3Z" style="fill-rule:nonzero;"/></g></svg>