<?xml version="1.0" encoding="UTF-8" standalone="no"?><!DOCTYPE svg PUBLIC "-//W3C//DTD SVG 1.1//EN" "http://www.w3.org/Graphics/SVG/1.1/DTD/svg11.dtd"><svg width="100%" height="100%" viewBox="0 0 24 24" version="1.1" xmlns="http://www.w3.org/2000/svg" xmlns:xlink="http://www.w3.org/1999/xlink" xml:space="preserve" xmlns:serif="http://www.serif.com/" style="fill-rule:evenodd;clip-rule:evenodd;stroke-linejoin:round;stroke-miterlimit:2;"><g><path d="M21.8,10c-0.4,-1.2 -1.6,-2 -2.8,-2c-1.7,0 -3,1.3 -3,3c0,1.3 0.8,2.4 2,2.8l0,1.7c0,2.5 -2,4.5 -4.5,4.5c-2.5,0 -4.5,-2 -4.5,-4.5l0,-1l3.1,-2.5c1.2,-1 1.9,-2.4 1.9,-3.9l0,-5.1c0,-0.6 -0.4,-1 -1,-1l-2,0c-0.6,0 -1,0.4 -1,1c0,0.6 0.4,1 1,1l1,0l0,4.1c0,0.9 -0.4,1.8 -1.1,2.3l-2.9,2.3l-2.9,-2.3c-0.7,-0.5 -1.1,-1.4 -1.1,-2.3l0,-4.1l1,0c0.6,0 1,-0.4 1,-1c0,-0.6 -0.4,-1 -1,-1l-2,0c-0.6,0 -1,0.4 -1,1l0,5.1c0,1.5 0.7,3 1.9,3.9l3.1,2.5l0,1c0,3.6 2.9,6.5 6.5,6.5c3.6,0 6.5,-2.9 6.5,-6.5l0,-1.7c1.6,-0.5 2.4,-2.2 1.8,-3.8Z" style="fill-rule:nonzero;"/></g></svg>