<?xml version="1.0" encoding="UTF-8" standalone="no"?>
<!DOCTYPE svg PUBLIC "-//W3C//DTD SVG 1.1//EN" "http://www.w3.org/Graphics/SVG/1.1/DTD/svg11.dtd">
<svg width="100%" height="100%" viewBox="0 0 24 24" version="1.1" xmlns="http://www.w3.org/2000/svg" xmlns:xlink="http://www.w3.org/1999/xlink" xml:space="preserve" xmlns:serif="http://www.serif.com/" style="fill-rule:evenodd;clip-rule:evenodd;stroke-linejoin:round;stroke-miterlimit:2;">
    <g transform="matrix(0.233566,0,0,0.233566,0.321657,0.376692)">
        <path d="M91.492,40.828L84.773,25.574C81.996,19.265 74.601,16.394 68.296,19.176L64.484,20.855C58.175,23.633 55.304,31.027 58.085,37.332L59.765,41.145L36.886,51.223L35.206,47.41C32.429,41.102 25.034,38.231 18.729,41.012L14.917,42.692C8.608,45.469 5.737,52.864 8.518,59.169L15.237,74.423C18.014,80.731 25.409,83.602 31.714,80.821L35.527,79.141C41.835,76.364 44.706,68.969 41.925,62.664L40.245,58.852L63.124,48.774L64.804,52.586C67.581,58.895 74.976,61.766 81.281,58.985L85.094,57.305C91.398,54.528 94.269,47.137 91.492,40.828Z" style="fill-rule:nonzero;"/>
    </g>
</svg>
