<?xml version="1.0" encoding="UTF-8" standalone="no"?>
<!DOCTYPE svg PUBLIC "-//W3C//DTD SVG 1.1//EN" "http://www.w3.org/Graphics/SVG/1.1/DTD/svg11.dtd">
<svg width="100%" height="100%" viewBox="0 0 1234 427" version="1.1" xmlns="http://www.w3.org/2000/svg" xmlns:xlink="http://www.w3.org/1999/xlink" xml:space="preserve" xmlns:serif="http://www.serif.com/" style="fill-rule:evenodd;clip-rule:evenodd;stroke-linejoin:round;stroke-miterlimit:2;">
    <g id="Artboard1" transform="matrix(0.803385,0,0,0.416992,0,0)">
        <rect x="0" y="0" width="1536" height="1024" style="fill:none;"/>
        <clipPath id="_clip1">
            <rect x="0" y="0" width="1536" height="1024"/>
        </clipPath>
        <g clip-path="url(#_clip1)">
            <g transform="matrix(1.244733,0,0,2.398126,-11.973985,-50.602034)">
                <g transform="matrix(1,0,0,1,-79,-179)">
                    <g>
                        <g transform="matrix(1.140337,0,0,1.140337,-277.519323,172.596103)">
                            <path d="M587.295,105.809C566.267,92.131 530.253,68.385 521.71,63.139C509.451,55.61 508.946,52.654 503.732,55.871C479.184,71.013 456.786,86.171 452.762,88.894C405.436,120.922 323.212,170.332 321.51,169.475C320.15,168.79 321.36,168.166 334.848,155.891C378.997,115.712 463.479,53.05 492.442,33.414C504.621,25.157 506.331,22.743 509.289,24.829C552.84,55.533 552.309,56.126 581.202,76.916C605.093,94.105 609.054,100.492 609.009,93.491C608.896,75.984 609.891,74.351 606.443,73.823C602.794,73.263 602.906,62.221 606.473,62.14C609.277,62.076 635.035,61.488 641.536,62.168C644.736,62.502 643.565,71.178 643.554,71.504C643.464,74.399 640.196,73.598 639.458,74.465C638.205,75.938 638.895,113.142 638.957,116.504C639.061,122.106 640.508,121.804 660.716,140.261C685.133,162.563 693.028,168.611 692.407,169.438C691.339,170.862 690.931,169.535 672.754,159.015C624.515,131.098 595.036,110.663 587.295,105.809Z" style="fill:rgb(220,118,10);"/>
                        </g>
                        <g transform="matrix(1.140337,0,0,1.140337,-277.519323,172.596103)">
                            <path d="M677.948,238.497C675.672,325.823 578.035,366.446 560.786,381.829C548.657,392.647 546.812,400.225 547.281,394.519C547.336,393.86 553.951,380.104 558.839,374.8C584.091,347.402 634.237,319.396 649.641,264.542C671,188.477 579.739,151.435 528.834,213.994C511.493,235.305 554.381,152.099 619.55,164.227C637.768,167.617 649.952,176.292 658.175,184.816C676.994,204.322 677.82,233.922 677.948,238.497Z" style="fill:rgb(220,118,10);"/>
                        </g>
                        <g transform="matrix(1.140337,0,0,1.140337,-277.519323,172.596103)">
                            <path d="M393.757,312.255C399.795,302.994 413.518,321.628 445.252,337.974C468.301,349.846 489.583,343.382 488.242,340.606C484.2,332.241 449.937,341.557 447.63,325.48C446.269,315.993 454.003,326.023 480.525,320.632C510.012,314.639 510.048,320.058 537.615,332.232C565.145,344.391 591.788,328.501 588.057,335.28C584.395,341.935 550.914,357.725 539.195,374.216C535.998,378.716 539.848,364.184 527.52,362.371C518.429,361.034 485.478,375.537 468.543,370.337C468.406,370.295 468.482,369.978 468.34,369.959C467.808,369.889 467.886,369.883 467.4,369.803C466.429,369.378 465.458,368.954 464.487,368.53C458.351,364.539 430.823,353.614 400.811,321.202C400.192,320.533 397.394,317.511 393.757,312.255Z" style="fill:rgb(220,118,10);"/>
                        </g>
                        <g transform="matrix(1.140337,0,0,1.140337,-277.519323,172.596103)">
                            <path d="M513.115,304.069C513.892,303.853 513.808,303.853 514.554,303.669C540.666,297.223 547.758,268.57 577.518,272.298C618.057,277.376 609.098,333.8 602.137,324.925C596.386,317.593 577.093,328.562 559.54,327.02C552.82,326.429 551.139,326.451 551.987,322.629C552.316,321.149 555.852,305.215 551.411,303.693C544.601,301.358 541.888,319.929 512.437,305.56C512.663,305.063 512.889,304.566 513.115,304.069Z" style="fill:rgb(220,118,10);"/>
                        </g>
                        <g transform="matrix(1.140337,0,0,1.140337,-277.519323,172.596103)">
                            <path d="M555.379,260.623C534.88,235.348 566.208,211.307 585.419,225.612C609.66,243.661 584.657,284.326 555.379,260.623Z" style="fill:rgb(220,118,10);"/>
                        </g>
                        <g transform="matrix(1,0,0,1,-14,0)">
                            <g transform="matrix(1,0,0,1,22,1)">
                                <rect x="266" y="293" width="24" height="24" style="fill:rgb(220,118,10);"/>
                            </g>
                            <g transform="matrix(1,0,0,1,22,30.081178)">
                                <rect x="266" y="293" width="24" height="24" style="fill:rgb(220,118,10);"/>
                            </g>
                            <g transform="matrix(1,0,0,1,51.861334,1)">
                                <rect x="266" y="293" width="24" height="24" style="fill:rgb(220,118,10);"/>
                            </g>
                            <g transform="matrix(1,0,0,1,51.861334,30.081178)">
                                <rect x="266" y="293" width="24" height="24" style="fill:rgb(220,118,10);"/>
                            </g>
                        </g>
                    </g>
                    <g transform="matrix(1,0,0,1,-14,0)">
                        <g transform="matrix(1.140337,0,0,1.140337,-263.519323,172.596103)">
                            <path d="M393.757,312.255C397.394,317.511 400.192,320.533 400.811,321.202C430.823,353.614 458.351,364.539 464.487,368.53L462.401,368.87C430.983,362.264 332.757,309.814 336.991,230.516C340.075,172.753 406.276,132.945 465.892,180.003C468.651,182.18 479.771,190.958 494.064,213.719C494.161,213.872 496.89,221.569 492.587,215.428C443.748,145.734 339.856,181.467 366.987,267.368C373.678,288.552 391.054,309.064 393.757,312.255Z" style="fill:white;fill-opacity:0.85;"/>
                        </g>
                        <g transform="matrix(1.140337,0,0,1.140337,-263.519323,172.596103)">
                            <path d="M513.115,304.069C512.889,304.566 512.663,305.063 512.437,305.56C505.429,304.536 497.235,314.468 476.778,301.079C464.792,293.236 470.607,306.878 471.372,314.504C471.893,319.699 453.468,313.701 447.411,315.135C438.265,317.301 443.972,328.64 441.542,327.946C438.783,327.158 418.76,313.419 416.823,312.09C411.773,308.624 413.979,270.277 441.541,266.865C479.166,262.208 480.138,295.056 513.115,304.069Z" style="fill:white;fill-opacity:0.85;"/>
                        </g>
                        <g transform="matrix(1.140337,0,0,1.140337,-263.519323,172.596103)">
                            <path d="M473.957,240.522C470.587,272.757 426.343,267.527 427.121,238.486C427.858,210.956 472.871,205.057 473.957,240.522Z" style="fill:white;fill-opacity:0.85;"/>
                        </g>
                    </g>
                </g>
                <g transform="matrix(0.873406,0,0,0.808962,-471.918594,-177.71506)">
                    <g>
                        <g transform="matrix(269.436946,0,0,269.436946,1110,586)">
                            <path d="M0.055,-0.059L0.304,-0.749L0.417,-0.749L0.65,-0.059L0.712,-0.05L0.712,-0L0.447,-0L0.447,-0.05L0.528,-0.059L0.482,-0.207L0.192,-0.207L0.145,-0.059L0.23,-0.05L0.23,-0L-0.007,-0L-0.007,-0.05L0.055,-0.059ZM0.463,-0.266L0.365,-0.589L0.343,-0.672L0.318,-0.587L0.21,-0.266L0.463,-0.266Z" style="fill:white;fill-rule:nonzero;"/>
                        </g>
                        <g transform="matrix(269.436946,0,0,269.436946,1298.030414,586)">
                            <path d="M0.277,0.27C0.235,0.27 0.198,0.266 0.167,0.259C0.136,0.252 0.111,0.241 0.091,0.228C0.072,0.214 0.057,0.198 0.048,0.179C0.039,0.16 0.034,0.139 0.034,0.116C0.034,0.094 0.038,0.075 0.047,0.057C0.055,0.039 0.067,0.024 0.081,0.011C0.095,-0.002 0.111,-0.012 0.127,-0.019C0.112,-0.028 0.1,-0.039 0.092,-0.053C0.085,-0.067 0.081,-0.084 0.081,-0.103C0.081,-0.118 0.084,-0.132 0.091,-0.147C0.099,-0.161 0.108,-0.174 0.12,-0.186C0.132,-0.198 0.146,-0.207 0.16,-0.215C0.127,-0.23 0.102,-0.251 0.084,-0.278C0.066,-0.306 0.057,-0.339 0.057,-0.378C0.057,-0.418 0.068,-0.453 0.09,-0.481C0.113,-0.51 0.142,-0.532 0.177,-0.547C0.212,-0.562 0.25,-0.57 0.289,-0.57C0.322,-0.57 0.352,-0.566 0.379,-0.559C0.406,-0.552 0.429,-0.542 0.448,-0.528C0.455,-0.535 0.469,-0.544 0.49,-0.555C0.51,-0.565 0.534,-0.571 0.56,-0.571L0.59,-0.571L0.59,-0.483L0.484,-0.483C0.489,-0.475 0.493,-0.467 0.496,-0.458C0.5,-0.448 0.503,-0.439 0.504,-0.428C0.506,-0.417 0.507,-0.407 0.507,-0.395C0.507,-0.354 0.497,-0.319 0.478,-0.288C0.458,-0.258 0.43,-0.234 0.396,-0.218C0.361,-0.201 0.322,-0.193 0.277,-0.193C0.263,-0.193 0.25,-0.193 0.237,-0.195C0.225,-0.196 0.212,-0.198 0.201,-0.201C0.19,-0.193 0.182,-0.183 0.175,-0.172C0.168,-0.162 0.165,-0.15 0.165,-0.139C0.165,-0.114 0.173,-0.098 0.19,-0.091C0.206,-0.083 0.235,-0.079 0.275,-0.079L0.389,-0.079C0.432,-0.079 0.468,-0.073 0.496,-0.062C0.525,-0.051 0.545,-0.035 0.559,-0.013C0.572,0.008 0.579,0.033 0.579,0.063C0.579,0.092 0.571,0.119 0.555,0.144C0.539,0.169 0.517,0.191 0.489,0.21C0.462,0.229 0.429,0.244 0.393,0.254C0.357,0.265 0.318,0.27 0.277,0.27ZM0.286,0.212C0.318,0.212 0.348,0.207 0.377,0.197C0.406,0.188 0.43,0.174 0.449,0.155C0.467,0.137 0.477,0.115 0.477,0.088C0.477,0.07 0.474,0.054 0.468,0.041C0.462,0.028 0.45,0.019 0.434,0.012C0.417,0.005 0.392,0.002 0.36,0.002L0.24,0.002C0.229,0.002 0.218,0.002 0.207,0.001C0.197,0 0.187,-0.001 0.178,-0.003C0.164,0.009 0.154,0.023 0.147,0.04C0.139,0.057 0.136,0.076 0.136,0.098C0.136,0.121 0.14,0.142 0.15,0.159C0.159,0.176 0.175,0.189 0.197,0.198C0.219,0.207 0.249,0.212 0.286,0.212ZM0.287,-0.247C0.327,-0.247 0.356,-0.259 0.374,-0.282C0.392,-0.306 0.401,-0.34 0.401,-0.384C0.401,-0.415 0.396,-0.44 0.387,-0.459C0.378,-0.478 0.365,-0.493 0.348,-0.502C0.33,-0.512 0.309,-0.517 0.284,-0.517C0.261,-0.517 0.24,-0.512 0.223,-0.504C0.205,-0.495 0.191,-0.481 0.18,-0.462C0.17,-0.444 0.165,-0.418 0.165,-0.387C0.165,-0.36 0.169,-0.336 0.178,-0.315C0.186,-0.293 0.199,-0.277 0.217,-0.265C0.235,-0.253 0.258,-0.247 0.287,-0.247Z" style="fill:white;fill-rule:nonzero;"/>
                        </g>
                        <g transform="matrix(269.436946,0,0,269.436946,1460.509444,586)">
                            <path d="M0.101,-0.058L0.101,-0.746L0.021,-0.757L0.021,-0.8L0.182,-0.819L0.183,-0.819L0.205,-0.804L0.205,-0.057L0.291,-0.05L0.291,-0L0.02,-0L0.02,-0.05L0.101,-0.058Z" style="fill:white;fill-rule:nonzero;"/>
                        </g>
                        <g transform="matrix(269.436946,0,0,269.436946,1542.805986,586)">
                            <path d="M0.033,-0.279C0.033,-0.326 0.04,-0.368 0.055,-0.404C0.07,-0.44 0.09,-0.47 0.115,-0.495C0.14,-0.52 0.168,-0.538 0.2,-0.551C0.231,-0.564 0.264,-0.57 0.297,-0.57C0.356,-0.57 0.404,-0.557 0.441,-0.532C0.478,-0.506 0.506,-0.471 0.524,-0.428C0.542,-0.384 0.551,-0.334 0.551,-0.28C0.551,-0.233 0.543,-0.191 0.529,-0.155C0.514,-0.119 0.494,-0.088 0.469,-0.064C0.444,-0.039 0.415,-0.02 0.384,-0.008C0.352,0.005 0.32,0.011 0.286,0.011C0.242,0.011 0.205,0.004 0.173,-0.011C0.141,-0.026 0.114,-0.046 0.094,-0.072C0.073,-0.099 0.058,-0.13 0.048,-0.165C0.038,-0.2 0.033,-0.238 0.033,-0.279ZM0.293,-0.046C0.323,-0.046 0.348,-0.054 0.369,-0.071C0.391,-0.088 0.407,-0.113 0.418,-0.146C0.429,-0.18 0.435,-0.222 0.435,-0.272C0.435,-0.306 0.432,-0.338 0.427,-0.368C0.422,-0.397 0.414,-0.422 0.403,-0.444C0.391,-0.466 0.377,-0.483 0.359,-0.495C0.341,-0.507 0.319,-0.513 0.293,-0.513C0.262,-0.513 0.236,-0.505 0.215,-0.488C0.194,-0.471 0.177,-0.446 0.166,-0.413C0.154,-0.38 0.149,-0.338 0.149,-0.287C0.149,-0.252 0.152,-0.22 0.157,-0.191C0.162,-0.162 0.171,-0.136 0.182,-0.114C0.193,-0.093 0.208,-0.076 0.226,-0.064C0.245,-0.052 0.267,-0.046 0.293,-0.046Z" style="fill:white;fill-rule:nonzero;"/>
                        </g>
                        <g transform="matrix(269.436946,0,0,269.436946,1699.617894,586)">
                            <path d="M-0.005,-0.508L-0.005,-0.555L0.231,-0.555L0.231,-0.508L0.153,-0.496L0.234,-0.203L0.263,-0.075L0.291,-0.204L0.391,-0.555L0.496,-0.555L0.586,-0.204L0.613,-0.075L0.646,-0.203L0.725,-0.495L0.65,-0.508L0.65,-0.555L0.855,-0.555L0.855,-0.508L0.8,-0.495L0.643,0.008L0.547,0.008L0.45,-0.345L0.426,-0.462L0.401,-0.345L0.296,0.008L0.203,0.008L0.047,-0.496L-0.005,-0.508Z" style="fill:white;fill-rule:nonzero;"/>
                        </g>
                    </g>
                </g>
                <g transform="matrix(1.203492,0,0,1.114693,-521.201562,-277.812674)">
                    <g>
                        <g transform="matrix(52.929316,0,0,58.312019,1110,586)">
                            <path d="M0.652,-0L0.544,-0L0.544,-0.326L0.203,-0.326L0.203,-0L0.095,-0L0.095,-0.714L0.203,-0.714L0.203,-0.418L0.544,-0.418L0.544,-0.714L0.652,-0.714L0.652,-0Z" style="fill:white;fill-rule:nonzero;"/>
                        </g>
                        <g transform="matrix(52.929316,0,0,58.312019,1149.591128,586)">
                            <path d="M0.559,-0.271C0.559,-0.226 0.553,-0.186 0.541,-0.151C0.529,-0.116 0.512,-0.087 0.49,-0.063C0.468,-0.039 0.441,-0.021 0.41,-0.009C0.378,0.004 0.343,0.01 0.304,0.01C0.268,0.01 0.235,0.004 0.204,-0.009C0.173,-0.021 0.147,-0.039 0.124,-0.063C0.101,-0.087 0.084,-0.116 0.072,-0.151C0.059,-0.186 0.053,-0.226 0.053,-0.271C0.053,-0.33 0.063,-0.381 0.084,-0.422C0.104,-0.463 0.133,-0.495 0.171,-0.516C0.209,-0.538 0.254,-0.549 0.307,-0.549C0.356,-0.549 0.4,-0.538 0.438,-0.516C0.475,-0.495 0.505,-0.463 0.526,-0.422C0.548,-0.381 0.559,-0.33 0.559,-0.271ZM0.162,-0.271C0.162,-0.23 0.167,-0.195 0.177,-0.166C0.187,-0.137 0.203,-0.114 0.224,-0.099C0.245,-0.083 0.273,-0.075 0.306,-0.075C0.339,-0.075 0.366,-0.083 0.388,-0.099C0.409,-0.114 0.424,-0.137 0.434,-0.166C0.444,-0.195 0.449,-0.23 0.449,-0.271C0.449,-0.312 0.444,-0.346 0.433,-0.374C0.423,-0.403 0.407,-0.425 0.387,-0.44C0.365,-0.455 0.338,-0.463 0.305,-0.463C0.255,-0.463 0.219,-0.446 0.196,-0.412C0.173,-0.378 0.162,-0.331 0.162,-0.271Z" style="fill:white;fill-rule:nonzero;"/>
                        </g>
                        <g transform="matrix(52.929316,0,0,58.312019,1181.930941,586)">
                            <path d="M0.685,-0.549C0.746,-0.549 0.792,-0.534 0.823,-0.503C0.854,-0.472 0.869,-0.421 0.869,-0.351L0.869,-0L0.763,-0L0.763,-0.337C0.763,-0.379 0.755,-0.41 0.738,-0.43C0.721,-0.451 0.696,-0.461 0.662,-0.461C0.613,-0.461 0.579,-0.446 0.558,-0.417C0.538,-0.388 0.528,-0.345 0.528,-0.289L0.528,-0L0.422,-0L0.422,-0.337C0.422,-0.365 0.418,-0.388 0.411,-0.407C0.404,-0.425 0.393,-0.439 0.378,-0.448C0.363,-0.456 0.344,-0.461 0.32,-0.461C0.287,-0.461 0.261,-0.454 0.241,-0.439C0.223,-0.424 0.209,-0.403 0.201,-0.375C0.192,-0.347 0.188,-0.313 0.188,-0.272L0.188,-0L0.082,-0L0.082,-0.539L0.166,-0.539L0.181,-0.467L0.186,-0.467C0.197,-0.485 0.211,-0.5 0.228,-0.512C0.244,-0.525 0.262,-0.534 0.282,-0.54C0.302,-0.546 0.323,-0.549 0.346,-0.549C0.387,-0.549 0.422,-0.542 0.449,-0.527C0.476,-0.513 0.497,-0.491 0.51,-0.461L0.515,-0.461C0.533,-0.491 0.557,-0.513 0.588,-0.527C0.618,-0.542 0.65,-0.549 0.685,-0.549Z" style="fill:white;fill-rule:nonzero;"/>
                        </g>
                        <g transform="matrix(52.929316,0,0,58.312019,1232.055003,586)">
                            <path d="M0.296,-0.549C0.343,-0.549 0.384,-0.539 0.418,-0.519C0.453,-0.5 0.479,-0.472 0.497,-0.435C0.515,-0.398 0.524,-0.355 0.524,-0.305L0.524,-0.246L0.162,-0.246C0.163,-0.191 0.178,-0.149 0.206,-0.12C0.234,-0.091 0.273,-0.076 0.324,-0.076C0.358,-0.076 0.388,-0.079 0.415,-0.086C0.442,-0.092 0.469,-0.101 0.498,-0.114L0.498,-0.026C0.471,-0.014 0.443,-0.005 0.416,0.001C0.389,0.007 0.356,0.01 0.317,0.01C0.265,0.01 0.219,-0 0.179,-0.021C0.14,-0.041 0.109,-0.072 0.087,-0.113C0.064,-0.154 0.053,-0.205 0.053,-0.266C0.053,-0.326 0.063,-0.377 0.083,-0.419C0.103,-0.461 0.131,-0.493 0.168,-0.515C0.205,-0.538 0.247,-0.549 0.296,-0.549ZM0.297,-0.467C0.258,-0.467 0.228,-0.455 0.205,-0.43C0.182,-0.405 0.169,-0.37 0.164,-0.325L0.418,-0.325C0.418,-0.354 0.413,-0.378 0.405,-0.399C0.396,-0.42 0.382,-0.436 0.364,-0.449C0.347,-0.461 0.324,-0.467 0.297,-0.467Z" style="fill:white;fill-rule:nonzero;"/>
                        </g>
                        <g transform="matrix(52.929316,0,0,58.312019,1276.198052,586)">
                            <path d="M0.652,-0L0.544,-0L0.544,-0.326L0.203,-0.326L0.203,-0L0.095,-0L0.095,-0.714L0.203,-0.714L0.203,-0.418L0.544,-0.418L0.544,-0.714L0.652,-0.714L0.652,-0Z" style="fill:white;fill-rule:nonzero;"/>
                        </g>
                        <g transform="matrix(52.929316,0,0,58.312019,1315.789181,586)">
                            <path d="M0.296,-0.549C0.343,-0.549 0.384,-0.539 0.418,-0.519C0.453,-0.5 0.479,-0.472 0.497,-0.435C0.515,-0.398 0.524,-0.355 0.524,-0.305L0.524,-0.246L0.162,-0.246C0.163,-0.191 0.178,-0.149 0.206,-0.12C0.234,-0.091 0.273,-0.076 0.324,-0.076C0.358,-0.076 0.388,-0.079 0.415,-0.086C0.442,-0.092 0.469,-0.101 0.498,-0.114L0.498,-0.026C0.471,-0.014 0.443,-0.005 0.416,0.001C0.389,0.007 0.356,0.01 0.317,0.01C0.265,0.01 0.219,-0 0.179,-0.021C0.14,-0.041 0.109,-0.072 0.087,-0.113C0.064,-0.154 0.053,-0.205 0.053,-0.266C0.053,-0.326 0.063,-0.377 0.083,-0.419C0.103,-0.461 0.131,-0.493 0.168,-0.515C0.205,-0.538 0.247,-0.549 0.296,-0.549ZM0.297,-0.467C0.258,-0.467 0.228,-0.455 0.205,-0.43C0.182,-0.405 0.169,-0.37 0.164,-0.325L0.418,-0.325C0.418,-0.354 0.413,-0.378 0.405,-0.399C0.396,-0.42 0.382,-0.436 0.364,-0.449C0.347,-0.461 0.324,-0.467 0.297,-0.467Z" style="fill:white;fill-rule:nonzero;"/>
                        </g>
                        <g transform="matrix(52.929316,0,0,58.312019,1346.170608,586)">
                            <path d="M0.297,-0.548C0.363,-0.548 0.412,-0.533 0.445,-0.504C0.478,-0.474 0.494,-0.428 0.494,-0.365L0.494,-0L0.418,-0L0.397,-0.075L0.393,-0.075C0.378,-0.056 0.362,-0.04 0.346,-0.027C0.329,-0.014 0.31,-0.005 0.289,0.001C0.269,0.007 0.243,0.01 0.213,0.01C0.181,0.01 0.152,0.004 0.127,-0.007C0.101,-0.019 0.081,-0.037 0.066,-0.061C0.051,-0.085 0.044,-0.116 0.044,-0.153C0.044,-0.207 0.065,-0.249 0.107,-0.278C0.149,-0.306 0.213,-0.322 0.298,-0.325L0.389,-0.328L0.389,-0.356C0.389,-0.397 0.38,-0.426 0.362,-0.442C0.344,-0.458 0.319,-0.466 0.286,-0.466C0.259,-0.466 0.233,-0.462 0.208,-0.454C0.182,-0.445 0.158,-0.436 0.135,-0.425L0.103,-0.502C0.128,-0.515 0.157,-0.526 0.19,-0.535C0.223,-0.544 0.259,-0.548 0.297,-0.548ZM0.316,-0.256C0.255,-0.254 0.213,-0.244 0.19,-0.227C0.166,-0.21 0.154,-0.185 0.154,-0.154C0.154,-0.126 0.162,-0.105 0.179,-0.092C0.196,-0.08 0.217,-0.073 0.244,-0.073C0.285,-0.073 0.32,-0.085 0.348,-0.107C0.375,-0.131 0.389,-0.165 0.389,-0.212L0.389,-0.259L0.316,-0.256Z" style="fill:white;fill-rule:nonzero;"/>
                        </g>
                        <g transform="matrix(52.929316,0,0,58.312019,1376.446177,586)">
                            <rect x="0.082" y="-0.76" width="0.106" height="0.76" style="fill:white;fill-rule:nonzero;"/>
                        </g>
                        <g transform="matrix(52.929316,0,0,58.312019,1390.737092,586)">
                            <path d="M0.277,-0.076C0.291,-0.076 0.305,-0.077 0.32,-0.08C0.335,-0.083 0.347,-0.086 0.358,-0.089L0.358,-0.009C0.347,-0.004 0.331,0.001 0.312,0.005C0.293,0.008 0.273,0.01 0.254,0.01C0.225,0.01 0.198,0.005 0.174,-0.005C0.149,-0.015 0.13,-0.032 0.115,-0.057C0.1,-0.082 0.093,-0.116 0.093,-0.16L0.093,-0.458L0.018,-0.458L0.018,-0.506L0.097,-0.546L0.134,-0.66L0.199,-0.66L0.199,-0.539L0.353,-0.539L0.353,-0.458L0.199,-0.458L0.199,-0.162C0.199,-0.133 0.206,-0.111 0.221,-0.097C0.235,-0.083 0.254,-0.076 0.277,-0.076Z" style="fill:white;fill-rule:nonzero;"/>
                        </g>
                        <g transform="matrix(52.929316,0,0,58.312019,1411.00902,586)">
                            <path d="M0.188,-0.558C0.188,-0.54 0.188,-0.523 0.186,-0.507C0.185,-0.491 0.184,-0.477 0.183,-0.466L0.189,-0.466C0.2,-0.485 0.215,-0.5 0.232,-0.512C0.249,-0.524 0.268,-0.533 0.288,-0.539C0.309,-0.545 0.331,-0.548 0.353,-0.548C0.396,-0.548 0.431,-0.541 0.461,-0.527C0.49,-0.514 0.511,-0.493 0.526,-0.464C0.541,-0.435 0.549,-0.398 0.549,-0.351L0.549,-0L0.444,-0L0.444,-0.336C0.444,-0.378 0.435,-0.409 0.417,-0.43C0.399,-0.451 0.371,-0.461 0.333,-0.461C0.296,-0.461 0.268,-0.454 0.246,-0.439C0.226,-0.424 0.21,-0.403 0.202,-0.374C0.193,-0.346 0.188,-0.312 0.188,-0.271L0.188,-0L0.082,-0L0.082,-0.76L0.188,-0.76L0.188,-0.558Z" style="fill:white;fill-rule:nonzero;"/>
                        </g>
                    </g>
                </g>
            </g>
        </g>
    </g>
</svg>
